<svg width="970" height="1100" viewBox="0 0 970 1100" fill="none" xmlns="http://www.w3.org/2000/svg">
<path d="M933.428 335.3L523.278 1045.7L522.877 1046.4C520.506 1050.5 517.949 1054.94 515.462 1058.46C512.909 1062.07 508.122 1068.21 500.049 1071.8C490.47 1076.07 479.53 1076.07 469.951 1071.8C461.878 1068.21 457.091 1062.07 454.538 1058.46C452.051 1054.94 449.493 1050.5 447.122 1046.39L446.722 1045.7L36.5721 335.3L36.1712 334.606C33.7981 330.498 31.2383 326.067 29.4329 322.153C27.5799 318.135 24.6586 310.921 25.5823 302.132C26.6784 291.704 32.1481 282.23 40.6316 276.066C47.7805 270.872 55.4887 269.795 59.8947 269.391C64.1873 268.997 69.3037 268.999 74.0472 269L74.8503 269H895.15L895.953 269C900.696 268.999 905.813 268.997 910.105 269.391C914.511 269.795 922.219 270.872 929.368 276.066C937.852 282.23 943.322 291.704 944.418 302.132C945.341 310.921 942.42 318.135 940.567 322.153C938.762 326.067 936.203 330.497 933.83 334.604L933.428 335.3Z" stroke="#7B878E" stroke-width="50" stroke-linejoin="round"/>
<path d="M933.428 764.7L523.278 54.3L522.877 53.605C520.506 49.4962 517.949 45.0643 515.462 41.5436C512.909 37.9299 508.122 31.793 500.049 28.1988C490.47 23.9337 479.53 23.9337 469.951 28.1988C461.878 31.793 457.091 37.9299 454.538 41.5436C452.051 45.0644 449.493 49.4965 447.122 53.6054L446.722 54.3L36.5721 764.7L36.1712 765.394C33.7981 769.502 31.2383 773.933 29.4329 777.847C27.5799 781.865 24.6586 789.079 25.5823 797.868C26.6784 808.296 32.1481 817.77 40.6316 823.934C47.7805 829.128 55.4887 830.205 59.8947 830.609C64.1873 831.003 69.3037 831.001 74.0472 831L74.8503 831H895.15L895.953 831C900.696 831.001 905.813 831.003 910.105 830.609C914.511 830.205 922.219 829.128 929.368 823.934C937.852 817.77 943.322 808.296 944.418 797.868C945.341 789.079 942.42 781.865 940.567 777.847C938.762 773.933 936.203 769.503 933.83 765.396L933.428 764.7Z" fill="#33C767" stroke="#33C767" stroke-width="50" stroke-linejoin="round"/>
<path d="M650.535 418.499L498.003 330.354C490.264 325.882 480.725 325.882 472.986 330.354L320.457 418.499C303.802 428.123 303.802 452.165 320.457 461.79L472.986 549.934C480.725 554.407 490.264 554.407 498.003 549.934L650.535 461.79C667.19 452.165 667.19 428.123 650.535 418.499Z" fill="white"/>
<path d="M295.492 681.676C287.761 677.209 283 668.959 283 660.031V483.742C283 464.492 303.842 452.465 320.508 462.096L473.008 550.221C480.739 554.688 485.5 562.939 485.5 571.867L485.5 748.156C485.5 767.405 464.658 779.432 447.992 769.801L295.492 681.676Z" fill="white"/>
<path d="M675.508 681.676C683.239 677.209 688 668.959 688 660.031V483.742C688 464.492 667.158 452.465 650.492 462.096L497.992 550.221C490.261 554.688 485.5 562.939 485.5 571.867L485.5 748.156C485.5 767.405 506.342 779.432 523.008 769.801L675.508 681.676Z" fill="white"/>
<path d="M485.5 571.867L485.5 748.156M485.5 571.867C485.5 562.939 480.739 554.688 473.008 550.221L320.508 462.096C303.842 452.465 283 464.492 283 483.742V660.031C283 668.959 287.761 677.209 295.492 681.676L447.992 769.801C464.658 779.432 485.5 767.405 485.5 748.156M485.5 571.867C485.5 562.939 490.261 554.688 497.992 550.221L650.492 462.096C667.158 452.465 688 464.492 688 483.742V660.031C688 668.959 683.239 677.209 675.508 681.676L523.008 769.801C506.342 779.432 485.5 767.405 485.5 748.156M498.003 330.354L650.535 418.499C667.19 428.123 667.19 452.165 650.535 461.79L498.003 549.934C490.264 554.407 480.725 554.407 472.986 549.934L320.457 461.79C303.802 452.165 303.802 428.123 320.457 418.499L472.986 330.354C480.725 325.882 490.264 325.882 498.003 330.354Z" stroke="#33C767" stroke-width="30" stroke-miterlimit="16" stroke-linejoin="round"/>
</svg>
